<svg xmlns="http://www.w3.org/2000/svg" xmlns:xlink="http://www.w3.org/1999/xlink" viewBox="0,0,256,256" width="120px" height="120px"><g fill="none" fill-rule="nonzero" stroke="none" stroke-width="1" stroke-linecap="butt" stroke-linejoin="miter" stroke-miterlimit="10" stroke-dasharray="" stroke-dashoffset="0" font-family="none" font-weight="none" font-size="none" text-anchor="none" style="mix-blend-mode: normal"><g transform="scale(6.4,6.4)"><path d="M20,38.5c-10.201,0 -18.5,-8.299 -18.5,-18.5c0,-10.201 8.299,-18.5 18.5,-18.5c10.201,0 18.5,8.299 18.5,18.5c0,10.201 -8.299,18.5 -18.5,18.5z" fill="#bfe1ff"></path><path d="M20,2c9.925,0 18,8.075 18,18c0,9.925 -8.075,18 -18,18c-9.925,0 -18,-8.075 -18,-18c0,-9.925 8.075,-18 18,-18M20,1c-10.493,0 -19,8.507 -19,19c0,10.493 8.507,19 19,19c10.493,0 19,-8.507 19,-19c0,-10.493 -8.507,-19 -19,-19z" fill="#4788c7"></path><g fill="#ffffff"><path d="M16.025,28.02l-6.907,-6.907l2.122,-2.121l4.785,4.785l12.093,-12.093l2.122,2.121z"></path></g></g></g></svg>