<svg xmlns="http://www.w3.org/2000/svg" xmlns:xlink="http://www.w3.org/1999/xlink" viewBox="0,0,256,256" width="128px" height="128px"><g fill="#0d336b" fill-rule="nonzero" stroke="none" stroke-width="1" stroke-linecap="butt" stroke-linejoin="miter" stroke-miterlimit="10" stroke-dasharray="" stroke-dashoffset="0" font-family="none" font-weight="none" font-size="none" text-anchor="none" style="mix-blend-mode: normal"><g transform="scale(8,8)"><path d="M28.323,18.504c-0.521,-0.88 -1.091,-1.72 -1.698,-2.504c0.607,-0.784 1.177,-1.624 1.698,-2.504c0.139,-0.234 0.168,-0.509 0.103,-0.761c-0.392,-2.292 -1.579,-4.358 -3.353,-5.838c-0.007,-0.008 -0.015,-0.016 -0.023,-0.024c-0.189,-0.188 -0.458,-0.277 -0.712,-0.29c-1.032,0.008 -2.045,0.08 -3.022,0.212c-0.381,-0.924 -0.826,-1.835 -1.327,-2.719c-0.116,-0.204 -0.299,-0.36 -0.518,-0.443c-2.237,-0.842 -4.702,-0.842 -6.939,0c-0.219,0.083 -0.402,0.239 -0.518,0.443c-0.5,0.883 -0.945,1.794 -1.327,2.719c-0.977,-0.132 -1.99,-0.204 -3.022,-0.212c-0.003,0 -0.005,0 -0.008,0c-0.262,0 -0.514,0.108 -0.701,0.292c-1.777,1.472 -2.97,3.53 -3.372,5.815c-0.082,0.263 -0.053,0.557 0.095,0.807c0.521,0.88 1.091,1.72 1.698,2.504c-0.607,0.784 -1.177,1.624 -1.698,2.504c-0.139,0.234 -0.168,0.509 -0.103,0.761c0.392,2.292 1.578,4.356 3.351,5.836c0.008,0.009 0.017,0.018 0.025,0.026c0.189,0.188 0.444,0.308 0.713,0.29c1.033,-0.009 2.046,-0.08 3.021,-0.212c0.381,0.924 0.826,1.835 1.327,2.719c0.116,0.204 0.299,0.36 0.518,0.443c1.119,0.421 2.294,0.631 3.47,0.631c1.176,0 2.351,-0.21 3.47,-0.631c0.219,-0.083 0.402,-0.239 0.518,-0.443c0.5,-0.883 0.945,-1.795 1.327,-2.719c0.976,0.132 1.988,0.203 3.021,0.212c0.29,0.003 0.521,-0.106 0.711,-0.293c1.776,-1.471 2.969,-3.528 3.371,-5.813c0.08,-0.265 0.052,-0.558 -0.096,-0.808zM20,16c0,2.209 -1.791,4 -4,4c-2.209,0 -4,-1.791 -4,-4c0,-2.209 1.791,-4 4,-4c2.209,0 4,1.791 4,4z"></path></g></g></svg>