<svg xmlns="http://www.w3.org/2000/svg" xmlns:xlink="http://www.w3.org/1999/xlink" viewBox="0,0,256,256" width="120px" height="120px"><g fill="#0d336b" fill-rule="nonzero" stroke="none" stroke-width="1" stroke-linecap="butt" stroke-linejoin="miter" stroke-miterlimit="10" stroke-dasharray="" stroke-dashoffset="0" font-family="none" font-weight="none" font-size="none" text-anchor="none" style="mix-blend-mode: normal"><g transform="scale(10.66667,10.66667)"><path d="M10.74414,1.00195c-0.9303,0 -1.7473,0.65505 -1.95117,1.56055c0,0.0013 0,0.0026 0,0.00391l-0.28906,1.29102c-0.64705,0.28086 -1.24732,0.62857 -1.80273,1.04492l-1.26953,-0.39844c-0.8885,-0.27849 -1.86514,0.1025 -2.33008,0.91016l-1.25391,2.17188c-0.46657,0.8059 -0.3091,1.84245 0.37695,2.47266l0.89258,0.82226c-0.04726,0.37065 -0.11719,0.73362 -0.11719,1.11914c0,0.38515 0.07163,0.7484 0.11914,1.11914l-0.89453,0.82226c-0.68389,0.62844 -0.84488,1.66779 -0.37891,2.47266l1.25391,2.17383c0.00065,0 0.0013,0 0.00195,0c0.46484,0.8029 1.44225,1.18648 2.33008,0.9082l1.26953,-0.39844c0.55458,0.41558 1.15478,0.76223 1.80078,1.04297l0.28906,1.29492c0,0.00065 0,0.0013 0,0.00195c0.20338,0.90596 1.02325,1.56055 1.95117,1.56055h2.51172c0.9303,0 1.7473,-0.65505 1.95117,-1.56055c0,-0.00065 0,-0.0013 0,-0.00195l0.28906,-1.29297c0.64705,-0.28086 1.24732,-0.62858 1.80273,-1.04492l1.26953,0.39844c0.88566,0.2776 1.86556,-0.10516 2.33008,-0.91016l1.25391,-2.17188c0.46598,-0.80487 0.30694,-1.84422 -0.37695,-2.47266l-0.89258,-0.82226c0.04751,-0.37074 0.11914,-0.73399 0.11914,-1.11914c0,-0.38448 -0.07179,-0.74706 -0.11914,-1.11719l0.89453,-0.82226c0.68389,-0.62844 0.84293,-1.66974 0.37695,-2.47461l-1.25391,-2.17187c0,-0.00065 0,-0.0013 0,-0.00195c-0.46484,-0.80291 -1.44225,-1.18452 -2.33008,-0.90625l-1.27148,0.39844c-0.55493,-0.41568 -1.15437,-0.76424 -1.80078,-1.04492l-0.28906,-1.29492c-0.20338,-0.90596 -1.02325,-1.5625 -1.95117,-1.5625zM11.14453,3.50195h1.71094l0.3125,1.40039c0.09689,0.43177 0.41481,0.78014 0.83594,0.91602c0.87404,0.28273 1.66672,0.75096 2.3418,1.35938c0.32822,0.29655 0.78873,0.39756 1.21094,0.26563l1.37695,-0.43359l0.85547,1.48242l-1.05664,0.96875c-0.32596,0.29938 -0.46933,0.7488 -0.37695,1.18164c0.09383,0.44127 0.14453,0.89401 0.14453,1.35742c0,0.46341 -0.0507,0.91616 -0.14453,1.35742c-0.09212,0.43186 0.05042,0.88029 0.375,1.17969l1.05664,0.97266l-0.85547,1.48047l-1.37695,-0.43164c-0.42246,-0.1332 -0.88386,-0.03289 -1.21289,0.26367c-0.67329,0.60756 -1.46558,1.07658 -2.33984,1.35938c-0.42164,0.13622 -0.73967,0.48546 -0.83594,0.91797l-0.3125,1.39844h-1.71094l-0.3125,-1.39844c-0.09591,-0.43204 -0.4131,-0.78117 -0.83398,-0.91797c-0.87404,-0.28273 -1.66672,-0.75096 -2.3418,-1.35937c-0.32861,-0.29586 -0.78907,-0.39612 -1.21094,-0.26367l-1.37891,0.43164l-0.85352,-1.48047l1.05664,-0.9707c0.32596,-0.29938 0.46933,-0.7488 0.37695,-1.18164c-0.09383,-0.44127 -0.14453,-0.89401 -0.14453,-1.35742c0,-0.46341 0.05111,-0.91715 0.14453,-1.36133c0.09091,-0.43159 -0.05234,-0.87914 -0.37695,-1.17773l-1.05664,-0.9707l0.85352,-1.48047l1.37891,0.43164c0.42246,0.1332 0.88386,0.03289 1.21289,-0.26367c0.67329,-0.60756 1.46558,-1.07658 2.33984,-1.35937c0.42113,-0.13587 0.73905,-0.48425 0.83594,-0.91602zM12,8c-1.22917,0 -2.30867,0.50594 -2.99609,1.2793c-0.68742,0.77335 -1.00391,1.75543 -1.00391,2.7207c0,0.96528 0.31648,1.94735 1.00391,2.7207c0.68742,0.77335 1.76693,1.2793 2.99609,1.2793c1.22917,0 2.30867,-0.50594 2.99609,-1.2793c0.68742,-0.77335 1.00391,-1.75543 1.00391,-2.7207c0,-0.96528 -0.31648,-1.94735 -1.00391,-2.7207c-0.68742,-0.77335 -1.76693,-1.2793 -2.99609,-1.2793zM12,10.5c0.60417,0 0.89966,0.18156 1.12891,0.43945c0.22924,0.2579 0.37109,0.65082 0.37109,1.06055c0,0.40972 -0.14185,0.80265 -0.37109,1.06055c-0.22924,0.2579 -0.52474,0.43945 -1.12891,0.43945c-0.60417,0 -0.89966,-0.18156 -1.12891,-0.43945c-0.22924,-0.2579 -0.37109,-0.65082 -0.37109,-1.06055c0,-0.40972 0.14185,-0.80265 0.37109,-1.06055c0.22924,-0.2579 0.52474,-0.43945 1.12891,-0.43945z"></path></g></g></svg>