<svg xmlns="http://www.w3.org/2000/svg" xmlns:xlink="http://www.w3.org/1999/xlink" viewBox="0,0,256,256" width="32px" height="32px" fill-rule="nonzero"><g fill="#00405d" fill-rule="nonzero" stroke="none" stroke-width="1" stroke-linecap="butt" stroke-linejoin="miter" stroke-miterlimit="10" stroke-dasharray="" stroke-dashoffset="0" font-family="none" font-weight="none" font-size="none" text-anchor="none" style="mix-blend-mode: normal"><g transform="scale(8,8)"><path d="M16.02344,4.00391c-2.70829,0.0139 -5.3738,0.34557 -8.08789,0.93945c-1.61622,0.35392 -2.72102,1.39007 -3.26953,2.70508c-2.40295,5.75541 -2.50724,14.18281 1.20898,19.23828c0.52247,0.71121 1.31829,1.11349 2.0918,1.11328c0.7735,-0.00021 1.50477,-0.37217 1.97852,-0.99219c0.483,-0.63218 0.72197,-1.22681 0.99219,-1.82617c5.92246,1.11245 9.16901,1.11557 14.41992,-0.35937c1.33453,-0.37573 2.36222,-1.37374 2.74414,-2.67383c1.32459,-4.50889 1.32053,-10.37304 -0.75,-14.65625c-0.61011,-1.26354 -1.6401,-2.19606 -2.98828,-2.51562c-2.88005,-0.68231 -5.63156,-0.98656 -8.33984,-0.97266zM16.0332,5.99805c2.55034,-0.01335 5.13398,0.27842 7.86719,0.92578c0.81182,0.19243 1.2185,0.54304 1.65039,1.4375c1.74547,3.61079 1.81822,9.1895 0.63281,13.22461c-0.21208,0.72191 -0.57771,1.08828 -1.36719,1.31055c-5.33631,1.49893 -7.82869,1.50535 -14.23242,0.23828c-0.47391,-0.09417 -0.94738,0.16393 -1.125,0.61328c-0.29893,0.75977 -0.57417,1.3521 -1.10352,2.04492c-0.10925,0.14298 -0.25218,0.20699 -0.38867,0.20703c-0.1365,0.00004 -0.28594,-0.03208 -0.48047,-0.29687c-3.03778,-4.13253 -3.10166,-12.19057 -0.97461,-17.28516c0.37749,-0.905 0.72778,-1.27345 1.85156,-1.51953c2.60091,-0.56912 5.11896,-0.88704 7.66992,-0.90039zM16,9c-0.55228,0 -1,0.44772 -1,1c0,0.55228 0.44772,1 1,1c0.55228,0 1,-0.44772 1,-1c0,-0.55228 -0.44772,-1 -1,-1zM15.98438,12.98633c-0.55152,0.00862 -0.99193,0.46214 -0.98437,1.01367v6c-0.0051,0.36064 0.18438,0.69608 0.49587,0.87789c0.3115,0.18181 0.69676,0.18181 1.00825,0c0.3115,-0.18181 0.50097,-0.51725 0.49587,-0.87789v-6c0.0037,-0.2703 -0.10218,-0.53059 -0.29351,-0.72155c-0.19133,-0.19097 -0.45182,-0.29634 -0.72212,-0.29212z"></path></g></g></svg>